<?xml version="1.0" standalone="no"?>
<!DOCTYPE svg PUBLIC "-//W3C//DTD SVG 20010904//EN"
 "http://www.w3.org/TR/2001/REC-SVG-20010904/DTD/svg10.dtd">
<svg version="1.0" xmlns="http://www.w3.org/2000/svg"
 width="300.000000pt" height="300.000000pt" viewBox="0 0 300.000000 300.000000"
 preserveAspectRatio="xMidYMid meet">
<metadata>
Created by potrace 1.10, written by Peter Selinger 2001-2011
</metadata>
<g transform="translate(0.000000,300.000000) scale(0.100000,-0.100000)"
fill="#000000" stroke="none">
<path d="M1624 2359 c-3 -6 -15 -9 -25 -6 -13 3 -19 0 -19 -10 0 -10 6 -14 20
-10 13 3 20 0 20 -9 0 -8 -4 -14 -9 -14 -18 0 -20 -31 -4 -50 24 -27 37 -25
19 3 -14 20 -13 25 4 52 11 17 20 36 20 43 0 15 -16 16 -26 1z"/>
<path d="M1683 2353 c-12 -2 -24 -11 -27 -19 -7 -19 4 -45 16 -38 5 3 7 13 4
21 -4 10 -2 13 8 10 8 -3 16 -1 18 5 2 6 10 8 16 4 9 -5 9 -13 2 -27 -13 -24
1 -25 36 -3 27 19 43 12 25 -10 -9 -11 -8 -14 6 -12 10 0 23 8 30 16 10 13 12
13 18 -3 6 -14 10 -15 21 -6 11 9 14 8 14 -5 0 -9 -6 -16 -14 -16 -10 0 -12
-7 -8 -22 l5 -22 8 22 c6 16 17 22 39 22 16 0 30 5 30 10 0 6 -8 10 -17 10
-10 0 -32 14 -50 30 -30 28 -61 41 -48 20 7 -11 -59 -4 -85 10 -10 6 -20 9
-22 9 -2 -1 -13 -4 -25 -6z"/>
<path d="M1495 2314 c-6 -7 -23 -10 -37 -7 -24 5 -26 2 -29 -40 -4 -45 -4 -46
16 -28 11 10 28 21 38 24 9 4 17 13 17 22 0 18 7 19 25 2 7 -8 11 -25 8 -39
-3 -14 0 -29 7 -33 7 -5 10 2 8 22 -2 17 2 27 8 26 7 -1 11 10 9 30 -2 28 -6
32 -30 32 -15 1 -33 -4 -40 -11z"/>
<path d="M1660 2265 c0 -8 5 -15 10 -15 6 0 10 -9 10 -19 0 -11 5 -23 12 -27
8 -5 9 0 5 17 -4 13 -7 29 -7 35 0 7 -7 14 -15 18 -9 3 -15 0 -15 -9z"/>
<path d="M1384 2247 c-3 -9 -15 -17 -25 -17 -11 0 -22 -7 -25 -15 -4 -10 -13
-13 -25 -10 -19 6 -24 -5 -20 -47 1 -10 -3 -18 -8 -18 -6 0 -11 5 -11 10 0 6
-4 10 -10 10 -5 0 -10 -7 -10 -15 0 -8 5 -15 12 -15 9 0 9 -3 0 -12 -7 -7 -11
-37 -11 -72 1 -34 4 -48 6 -32 4 23 7 26 14 15 7 -9 8 2 3 34 -4 32 -3 47 5
47 6 0 10 -3 10 -7 -1 -5 -1 -14 0 -22 2 -24 31 9 31 35 0 29 16 32 25 4 8
-25 20 -26 22 -2 6 61 12 84 28 102 14 15 16 23 7 32 -8 8 -13 7 -18 -5z m-35
-91 c-9 -8 -10 -8 -5 1 3 6 2 14 -3 18 -5 3 -14 -3 -20 -12 -9 -16 -10 -16
-11 -1 0 9 10 24 23 33 21 15 22 14 25 -6 2 -12 -2 -26 -9 -33z"/>
<path d="M1918 2241 c12 -11 22 -24 22 -29 0 -5 7 -12 15 -16 8 -3 15 -13 15
-21 0 -10 -5 -14 -12 -10 -7 4 -6 0 3 -7 10 -8 21 -33 25 -56 10 -46 28 -46
39 1 6 23 4 27 -14 27 -18 0 -20 4 -15 25 4 18 1 27 -10 31 -11 4 -14 13 -11
24 7 21 -28 50 -60 50 -19 -1 -19 -1 3 -19z"/>
<path d="M1390 2197 c0 -8 10 -13 21 -13 12 1 24 -5 27 -13 3 -10 0 -12 -11
-8 -11 4 -17 -1 -19 -16 -2 -12 -9 -21 -16 -19 -7 1 -12 -10 -12 -29 0 -31 0
-31 -25 -15 -23 15 -25 15 -35 -4 -8 -15 -8 -20 3 -20 12 0 23 -16 45 -64 3
-4 -6 -5 -18 -1 -20 6 -21 5 -11 -14 7 -13 22 -21 36 -21 28 0 29 -2 13 -33
-6 -12 -14 -29 -18 -37 -5 -10 -21 -15 -44 -14 -25 1 -36 -3 -36 -13 0 -11 12
-13 52 -11 l53 3 8 46 c8 44 10 46 75 76 90 42 114 46 151 27 23 -11 35 -13
45 -5 9 8 22 7 44 -1 26 -10 37 -10 52 0 28 17 61 15 94 -7 16 -11 34 -17 41
-15 14 6 45 -37 45 -61 0 -30 17 -14 48 48 32 62 35 101 6 90 -8 -3 -14 -16
-14 -30 0 -19 -4 -24 -16 -19 -14 5 -15 4 -4 -9 9 -11 10 -19 3 -26 -7 -7 -15
-4 -25 10 -8 12 -18 18 -21 15 -4 -4 -17 0 -29 8 -40 26 -99 41 -111 29 -13
-13 -64 -15 -72 -2 -3 6 -17 6 -35 -1 -24 -8 -35 -7 -53 5 -15 9 -29 12 -45 6
-12 -5 -29 -6 -37 -3 -7 3 -29 -6 -48 -20 -34 -26 -64 -35 -52 -16 3 6 -1 10
-10 10 -12 0 -15 -6 -10 -20 10 -32 -24 -25 -36 8 -6 15 -15 34 -19 43 -6 12
-2 19 16 28 13 6 24 19 24 30 0 33 11 51 32 51 14 0 18 6 16 23 -2 12 -7 25
-13 29 -17 13 -55 9 -55 -5z"/>
<path d="M1224 2068 c-12 -19 -4 -79 13 -103 13 -19 14 -19 8 7 -4 15 -8 45
-8 67 -2 45 -3 46 -13 29z"/>
<path d="M1406 2051 c-10 -11 -15 -25 -11 -32 6 -8 13 -3 22 15 18 34 12 43
-11 17z"/>
<path d="M1297 2043 c-4 -3 -7 -15 -7 -25 0 -10 -4 -18 -10 -18 -5 0 -10 -11
-10 -25 0 -16 6 -25 15 -25 8 0 15 7 15 15 0 8 -6 15 -12 15 -7 0 -2 6 12 13
14 7 26 21 27 32 2 11 0 14 -3 8 -8 -18 -27 -16 -20 2 6 16 3 19 -7 8z"/>
<path d="M1210 1819 c0 -30 5 -61 10 -69 8 -10 9 5 4 50 -8 82 -14 90 -14 19z"/>
<path d="M1276 1833 c-12 -13 -5 -20 34 -33 36 -12 42 -11 60 5 28 25 25 36
-7 24 -17 -6 -36 -6 -54 0 -15 5 -30 7 -33 4z"/>
<path d="M1476 1805 c-13 -19 -25 -25 -54 -25 -20 0 -44 -5 -52 -11 -11 -8 -1
-9 38 -5 32 3 50 1 47 -4 -10 -16 7 -11 19 5 25 34 148 28 244 -11 16 -7 16
14 -1 29 -18 17 -31 20 -122 27 -44 3 -85 9 -92 13 -6 4 -18 -4 -27 -18z"/>
<path d="M1818 1788 c-16 -5 -28 -16 -28 -23 0 -7 -6 -16 -12 -19 -15 -7 6 -3
72 13 25 6 57 13 73 16 15 3 27 10 27 15 0 13 -97 11 -132 -2z"/>
<path d="M1273 1771 c1 -17 8 -21 34 -21 39 0 52 16 19 24 -13 3 -31 9 -40 12
-11 4 -14 0 -13 -15z"/>
<path d="M1513 1751 c-12 -11 -24 -17 -27 -14 -9 10 -7 -50 3 -65 4 -7 34 -16
67 -19 40 -4 56 -2 49 5 -8 8 -58 19 -96 22 -13 0 -4 35 14 55 11 12 37 22 70
26 l52 6 -56 2 c-42 1 -60 -4 -76 -18z"/>
<path d="M1674 1739 c30 -24 33 -45 9 -72 -10 -11 -12 -17 -5 -13 6 4 12 3 12
-2 0 -12 -30 -37 -55 -47 -12 -4 -15 -9 -8 -12 21 -8 52 17 73 57 28 54 26 77
-10 95 -41 21 -47 19 -16 -6z"/>
<path d="M1980 1750 l25 -8 -22 -7 c-37 -12 -27 -28 12 -21 l35 7 -6 -43 c-4
-24 -11 -54 -16 -68 -8 -23 -8 -24 7 -9 8 8 18 39 22 67 7 61 -13 93 -56 91
l-26 -1 25 -8z"/>
<path d="M1315 1729 c-111 -9 -130 -21 -122 -74 10 -59 37 -105 77 -130 49
-31 60 -31 60 -1 0 23 -3 24 -30 16 -20 -6 -32 -5 -36 3 -4 7 -4 9 1 5 4 -4
16 -3 26 2 15 9 17 20 12 83 l-6 74 30 6 c31 6 72 0 74 -12 0 -3 3 -15 6 -26
8 -24 9 -119 3 -240 -5 -112 8 -144 26 -59 6 32 10 71 7 86 -3 15 -2 35 2 45
4 10 8 48 8 85 1 36 5 64 9 62 11 -7 -3 58 -15 74 -5 6 -15 11 -21 11 -6 -1
-56 -5 -111 -10z m-57 -61 c7 -7 12 -32 12 -56 0 -35 -3 -43 -17 -40 -19 4
-36 53 -28 86 6 25 15 28 33 10z"/>
<path d="M1827 1733 c-4 -3 -7 -21 -7 -40 0 -23 5 -33 16 -33 10 0 12 5 7 13
-12 19 -13 40 -1 54 11 13 -3 19 -15 6z"/>
<path d="M1743 1698 c-30 -40 -50 -133 -26 -124 7 3 13 1 13 -4 0 -6 4 -10 9
-10 6 0 7 27 4 64 -8 103 31 102 63 -2 17 -58 39 -95 32 -57 -2 14 2 19 12 16
35 -9 128 -13 133 -5 3 5 -20 9 -51 10 -73 1 -102 6 -95 17 3 4 -1 16 -9 25
-8 9 -20 32 -28 50 -13 33 -40 42 -57 20z"/>
<path d="M1920 1665 c-7 -9 -19 -14 -27 -11 -7 3 -13 1 -13 -4 0 -16 50 -11
57 5 8 23 -2 28 -17 10z"/>
<path d="M1664 1536 c-9 -23 3 -47 19 -40 8 3 31 -2 51 -10 24 -10 43 -12 54
-6 9 4 25 11 35 14 9 3 17 13 17 21 0 11 -4 13 -12 8 -22 -14 -149 -10 -144 4
3 7 1 15 -5 18 -5 4 -12 -1 -15 -9z"/>
<path d="M1936 1498 c-13 -24 -27 -61 -30 -83 l-6 -40 15 45 c8 25 24 62 35
83 29 51 17 47 -14 -5z"/>
<path d="M1307 1476 c-3 -7 1 -44 8 -82 24 -127 26 -167 12 -224 -12 -47 -18
-55 -40 -58 -31 -4 -56 -39 -52 -75 2 -16 26 -53 59 -89 53 -60 66 -86 29 -57
-10 7 -5 -1 11 -19 17 -18 35 -32 42 -32 6 0 17 -7 24 -15 7 -8 21 -15 31 -15
11 0 19 -4 19 -8 0 -15 174 -43 235 -38 88 7 165 34 165 57 0 5 -15 2 -32 -8
-50 -26 -212 -30 -297 -8 -71 19 -175 68 -164 78 3 4 -12 27 -35 51 -25 27
-43 58 -48 81 -6 33 -3 41 28 73 59 63 64 117 32 310 -9 50 -17 92 -19 92 -2
0 -5 -6 -8 -14z"/>
<path d="M1846 1423 c-4 -5 -33 -9 -64 -9 -84 -2 -162 -15 -156 -26 14 -23
244 10 244 34 0 10 -14 10 -24 1z"/>
<path d="M1696 1345 c-3 -8 3 -17 14 -20 24 -7 88 4 96 17 10 15 0 18 -32 9
-16 -4 -39 -5 -51 0 -15 5 -23 3 -27 -6z"/>
<path d="M1842 1266 l-22 -46 -67 0 c-38 0 -75 -5 -83 -10 -11 -7 -7 -10 18
-10 23 0 31 -4 26 -12 -5 -8 6 -9 40 -5 26 4 52 9 57 12 15 10 61 94 57 105
-2 6 -13 -9 -26 -34z"/>
<path d="M1404 1284 c4 -11 9 -80 12 -154 2 -80 9 -138 15 -145 9 -7 10 -3 5
18 -4 17 -2 27 5 27 7 0 10 30 7 95 l-3 95 27 0 c15 0 29 -4 32 -9 3 -5 16
-11 28 -14 21 -5 21 -4 5 6 -10 7 -46 32 -79 56 -43 30 -59 38 -54 25z"/>
<path d="M1185 1103 c-11 -3 -41 -20 -68 -39 -26 -19 -52 -34 -57 -34 -6 0
-10 -4 -10 -8 0 -4 -17 -14 -37 -21 -21 -8 -40 -17 -43 -20 -5 -6 -85 -44
-247 -116 -40 -18 -91 -48 -114 -68 -23 -21 -46 -37 -50 -37 -5 0 -9 -6 -9
-14 0 -8 -4 -16 -9 -18 -12 -5 -115 -158 -109 -163 3 -3 35 35 72 84 36 49 90
107 119 130 30 22 126 74 214 114 163 75 281 137 305 160 7 7 28 19 46 26 54
22 52 37 -3 24z"/>
<path d="M1780 1056 c0 -3 11 -22 25 -42 16 -23 25 -51 25 -75 0 -21 5 -41 10
-44 6 -3 10 -18 10 -33 l1 -27 13 24 c17 31 12 57 -32 147 -13 26 -52 64 -52
50z"/>
<path d="M1190 961 c16 -31 28 -33 41 -9 11 21 11 22 -4 9 -14 -11 -18 -11
-23 3 -3 9 -10 16 -15 16 -6 0 -5 -8 1 -19z"/>
<path d="M1967 954 c-3 -5 3 -21 14 -34 13 -18 19 -20 19 -9 0 21 -25 54 -33
43z"/>
<path d="M2015 913 c6 -5 43 -15 84 -21 47 -8 98 -25 140 -47 75 -40 151 -101
151 -121 0 -8 5 -14 11 -14 5 0 8 -4 4 -9 -3 -6 15 -40 40 -78 26 -37 75 -127
110 -199 36 -72 71 -136 78 -143 8 -6 29 -42 47 -79 18 -37 38 -70 44 -74 7
-5 7 -8 1 -8 -6 0 -5 -3 1 -8 15 -10 69 -95 66 -104 -1 -5 9 -8 23 -8 l25 0
-34 48 c-39 54 -136 222 -176 302 -94 191 -221 386 -291 446 -66 58 -200 117
-274 122 -37 3 -56 1 -50 -5z"/>
<path d="M1081 873 c-186 -33 -352 -93 -443 -161 -66 -49 -140 -128 -288 -306
-63 -77 -119 -144 -125 -150 -6 -6 -14 -18 -17 -26 -3 -8 -40 -61 -82 -117
-42 -56 -76 -104 -76 -108 0 -3 9 -5 19 -5 11 0 28 14 40 32 30 48 50 77 93
134 21 28 38 54 38 57 0 4 8 15 18 25 9 11 49 55 87 99 39 45 80 86 93 92 12
6 22 17 22 26 0 8 5 15 12 15 6 0 8 3 5 6 -15 15 103 148 180 206 107 78 312
147 513 171 24 3 44 -2 63 -15 40 -28 41 -19 2 17 l-33 30 -121 -22z"/>
<path d="M504 427 c-38 -50 -88 -147 -80 -154 3 -3 9 3 13 13 3 10 30 56 60
102 55 87 60 111 7 39z"/>
</g>
</svg>
